# xmcd
#
# Track frame offsets:
#	150
#	11459
#	24641
#	38594
#	53199
#	65990
#	79422
#	90269
#	101926
#	116346
#	130016
#	143592
#	157907
#	171672
#	185154
#	195672
#	213205
#	225505
#	237774
#	250478
#	260035
#	271610
#	286597
#	297721
#
# Disc length: 4135 seconds
#
# Revision: 0
# Processed by: cddbd v1.5.2PL0 Copyright (c) Steve Scherf et al.
# Submitted via: EasyCDDAExtractor 8.0.1.1
#
DISCID=58102518
DTITLE=Los Kipus - Lo mejor de los Kipus
DYEAR=2002
DGENRE=Criollo
TTITLE0=Cariñito
TTITLE1=Perdistes
TTITLE2=Huye de mi
TTITLE3=Rosate
TTITLE4=Nada te reclamo
TTITLE5=Amorcito
TTITLE6=Y pecado ya no habra
TTITLE7=Quiereme Anita
TTITLE8=Ansias
TTITLE9=Mis celos
TTITLE10=Nada soy
TTITLE11=Horas grises
TTITLE12=Cariño malo
TTITLE13=Yo perdi el corazon
TTITLE14=Elena
TTITLE15=Ingrata
TTITLE16=Mal paso
TTITLE17=Amor eterno
TTITLE18=Si te vas que me queda
TTITLE19=Compadecete de mi
TTITLE20=El rosario de mi madre
TTITLE21=Juramento
TTITLE22=Tu voz
TTITLE23=Rosaura lindaura
EXTD=
EXTT0=
EXTT1=
EXTT2=
EXTT3=
EXTT4=
EXTT5=
EXTT6=
EXTT7=
EXTT8=
EXTT9=
EXTT10=
EXTT11=
EXTT12=
EXTT13=
EXTT14=
EXTT15=
EXTT16=
EXTT17=
EXTT18=
EXTT19=
EXTT20=
EXTT21=
EXTT22=
EXTT23=
PLAYORDER=
